<?xml version="1.0" encoding="UTF-8"?>
<svg id="Layer_1" xmlns="http://www.w3.org/2000/svg" viewBox="0 0 8.9 3.56">
  <defs>
    <style>
      .cls-1 {
        fill: #ced6ed;
      }

      .cls-2 {
        fill: #f48ca8;
      }
    </style>
  </defs>
  <path class="cls-1" d="M1.43,1.35c.06.08.09.17.09.26,0,.14-.05.26-.15.34-.1.08-.24.13-.42.13H.15V.37h.77c.17,0,.31.04.41.12.1.08.15.19.15.32,0,.1-.03.18-.08.25s-.12.11-.21.14c.1.02.18.07.24.15ZM.57,1.06h.27c.07,0,.12-.01.16-.04.04-.03.06-.07.06-.13s-.02-.1-.06-.13-.09-.05-.16-.05h-.27v.36ZM1.04,1.69s.06-.08.06-.14-.02-.11-.06-.14c-.04-.03-.09-.05-.16-.05h-.3v.38h.31c.07,0,.12-.02.16-.05Z"/>
  <path class="cls-1" d="M2.17.27v1.8h-.42V.27h.42Z"/>
  <path class="cls-1" d="M3.82.72v1.36h-.42v-.19c-.04.06-.1.11-.17.15-.07.04-.15.05-.24.05-.1,0-.2-.02-.28-.07-.08-.05-.14-.11-.19-.2s-.07-.19-.07-.31v-.79h.41v.74c0,.09.02.16.07.21.05.05.11.08.19.08s.15-.03.19-.08c.05-.05.07-.12.07-.21v-.74h.42Z"/>
  <path class="cls-2" d="M5.36,1.19c-.05.08-.12.15-.21.2-.09.05-.21.08-.35.08h-.26v.61h-.42V.37h.67c.14,0,.25.02.35.07s.17.11.21.2c.05.08.07.18.07.29,0,.1-.02.19-.07.27ZM4.94,1.08s.06-.09.06-.16-.02-.12-.06-.16-.1-.06-.18-.06h-.23v.43h.23c.08,0,.14-.02.18-.06Z"/>
  <path class="cls-2" d="M6.01,1.98c-.13-.08-.24-.18-.32-.31-.08-.13-.12-.29-.12-.45s.04-.32.12-.45c.08-.13.19-.24.32-.31.13-.07.28-.11.44-.11s.31.04.44.11c.13.07.24.18.32.31s.12.28.12.45-.04.32-.12.45-.18.24-.32.31c-.13.07-.28.11-.44.11s-.31-.04-.44-.11ZM6.78,1.58c.08-.09.12-.21.12-.36s-.04-.27-.12-.36-.19-.13-.33-.13-.25.04-.33.13-.12.21-.12.36.04.27.12.36c.08.09.19.13.33.13s.25-.04.33-.14Z"/>
  <path class="cls-2" d="M7.84,2.03c-.1-.04-.18-.1-.24-.18-.06-.08-.09-.17-.09-.29h.44c0,.06.03.11.07.14.04.03.09.05.15.05.06,0,.11-.01.15-.04s.05-.07.05-.12c0-.04-.01-.08-.04-.11-.03-.03-.06-.05-.1-.07-.04-.02-.1-.04-.18-.06-.11-.03-.2-.07-.27-.1-.07-.03-.13-.08-.18-.15-.05-.07-.08-.15-.08-.26,0-.16.06-.28.17-.37.12-.09.27-.14.45-.14s.34.04.46.14c.12.09.18.21.18.38h-.45c0-.06-.02-.1-.06-.13-.04-.03-.08-.05-.14-.05-.05,0-.09.01-.12.04s-.05.07-.05.12c0,.06.03.1.08.13.05.03.13.06.24.1.11.04.2.07.27.11s.13.08.18.15c.05.07.08.15.08.25s-.03.19-.07.27c-.05.08-.12.14-.22.19-.09.05-.21.07-.33.07s-.24-.02-.34-.06Z"/>
</svg>