<?xml version="1.0" encoding="UTF-8"?>
<svg id="Layer_1" xmlns="http://www.w3.org/2000/svg" viewBox="0 0 5.13 5.88">
  <defs>
    <style>
      .cls-1 {
        fill: #6fc9c6;
      }
    </style>
  </defs>
  <path class="cls-1" d="M1.81-1.39h0c.22,0,.41.18.41.41v3.21h-.81V-.98c0-.22.18-.41.41-.41Z" transform="translate(2.23 -1.39) rotate(90)"/>
  <path class="cls-1" d="M3.26.81v.93H.79v-.93h2.47M3.32.01H0v2.52h3.32c.4,0,.73-.33.73-.73V.74C4.05.34,3.73.01,3.32.01h0Z"/>
  <path class="cls-1" d="M4.12,3.59v1.24H1v-1.24h3.12M4.2,2.53H0v3.35h4.2c.51,0,.92-.44.92-.97v-1.41c0-.54-.41-.97-.92-.97h0Z"/>
  <rect class="cls-1" width=".78" height="5.82"/>
</svg>